<svg width="204" height="135" viewBox="0 0 204 135" fill="none" xmlns="http://www.w3.org/2000/svg">
<path d="M141.923 1.48241C142.333 1.48241 142.665 1.15056 142.665 0.741203C142.665 0.331842 142.333 0 141.923 0C141.514 0 141.182 0.331842 141.182 0.741203C141.182 1.15056 141.514 1.48241 141.923 1.48241Z" fill="#8643DC"/>
<path d="M138.217 5.18846C138.627 5.18846 138.959 4.85662 138.959 4.44726C138.959 4.0379 138.627 3.70605 138.217 3.70605C137.808 3.70605 137.476 4.0379 137.476 4.44726C137.476 4.85662 137.808 5.18846 138.217 5.18846Z" fill="#8643DC"/>
<path d="M134.326 8.89452C134.735 8.89452 135.067 8.56267 135.067 8.15331C135.067 7.74395 134.735 7.41211 134.326 7.41211C133.917 7.41211 133.585 7.74395 133.585 8.15331C133.585 8.56267 133.917 8.89452 134.326 8.89452Z" fill="#8643DC"/>
<path d="M130.62 12.6006C131.029 12.6006 131.361 12.2687 131.361 11.8594C131.361 11.45 131.029 11.1182 130.62 11.1182C130.21 11.1182 129.879 11.45 129.879 11.8594C129.879 12.2687 130.21 12.6006 130.62 12.6006Z" fill="#8643DC"/>
<path d="M126.728 16.4919C127.138 16.4919 127.47 16.1601 127.47 15.7507C127.47 15.3414 127.138 15.0095 126.728 15.0095C126.319 15.0095 125.987 15.3414 125.987 15.7507C125.987 16.1601 126.319 16.4919 126.728 16.4919Z" fill="#8643DC"/>
<path d="M123.022 20.198C123.432 20.198 123.764 19.8661 123.764 19.4568C123.764 19.0474 123.432 18.7156 123.022 18.7156C122.613 18.7156 122.281 19.0474 122.281 19.4568C122.281 19.8661 122.613 20.198 123.022 20.198Z" fill="#8643DC"/>
<path d="M119.131 23.9043C119.54 23.9043 119.872 23.5724 119.872 23.1631C119.872 22.7537 119.54 22.4219 119.131 22.4219C118.722 22.4219 118.39 22.7537 118.39 23.1631C118.39 23.5724 118.722 23.9043 119.131 23.9043Z" fill="#8643DC"/>
<path d="M115.425 27.6103C115.834 27.6103 116.166 27.2785 116.166 26.8691C116.166 26.4598 115.834 26.1279 115.425 26.1279C115.015 26.1279 114.684 26.4598 114.684 26.8691C114.684 27.2785 115.015 27.6103 115.425 27.6103Z" fill="#8643DC"/>
<path d="M111.534 31.3164C111.943 31.3164 112.275 30.9845 112.275 30.5752C112.275 30.1658 111.943 29.834 111.534 29.834C111.124 29.834 110.792 30.1658 110.792 30.5752C110.792 30.9845 111.124 31.3164 111.534 31.3164Z" fill="#8643DC"/>
<path d="M107.827 35.0224C108.237 35.0224 108.569 34.6906 108.569 34.2812C108.569 33.8719 108.237 33.54 107.827 33.54C107.418 33.54 107.086 33.8719 107.086 34.2812C107.086 34.6906 107.418 35.0224 107.827 35.0224Z" fill="#8643DC"/>
<path d="M103.936 38.7285C104.346 38.7285 104.677 38.3967 104.677 37.9873C104.677 37.5779 104.346 37.2461 103.936 37.2461C103.527 37.2461 103.195 37.5779 103.195 37.9873C103.195 38.3967 103.527 38.7285 103.936 38.7285Z" fill="#8643DC"/>
<path d="M100.23 42.4346C100.639 42.4346 100.971 42.1027 100.971 41.6934C100.971 41.284 100.639 40.9521 100.23 40.9521C99.8207 40.9521 99.4889 41.284 99.4889 41.6934C99.4889 42.1027 99.8207 42.4346 100.23 42.4346Z" fill="#8643DC"/>
<path d="M96.3386 46.1406C96.748 46.1406 97.0798 45.8088 97.0798 45.3994C97.0798 44.99 96.748 44.6582 96.3386 44.6582C95.9292 44.6582 95.5974 44.99 95.5974 45.3994C95.5974 45.8088 95.9292 46.1406 96.3386 46.1406Z" fill="#8643DC"/>
<path d="M92.6326 49.8467C93.042 49.8467 93.3738 49.5148 93.3738 49.1055C93.3738 48.6961 93.042 48.3643 92.6326 48.3643C92.2233 48.3643 91.8914 48.6961 91.8914 49.1055C91.8914 49.5148 92.2233 49.8467 92.6326 49.8467Z" fill="#8643DC"/>
<path d="M88.7412 53.5527C89.1506 53.5527 89.4824 53.2209 89.4824 52.8115C89.4824 52.4022 89.1506 52.0703 88.7412 52.0703C88.3318 52.0703 88 52.4022 88 52.8115C88 53.2209 88.3318 53.5527 88.7412 53.5527Z" fill="#8643DC"/>
<path d="M146.371 5.92967C146.78 5.92967 147.112 5.59783 147.112 5.18847C147.112 4.77911 146.78 4.44727 146.371 4.44727C145.961 4.44727 145.629 4.77911 145.629 5.18847C145.629 5.59783 145.961 5.92967 146.371 5.92967Z" fill="#8643DC"/>
<path d="M142.664 9.63573C143.074 9.63573 143.406 9.30388 143.406 8.89452C143.406 8.48516 143.074 8.15332 142.664 8.15332C142.255 8.15332 141.923 8.48516 141.923 8.89452C141.923 9.30388 142.255 9.63573 142.664 9.63573Z" fill="#8643DC"/>
<path d="M138.773 13.5271C139.182 13.5271 139.514 13.1952 139.514 12.7859C139.514 12.3765 139.182 12.0447 138.773 12.0447C138.364 12.0447 138.032 12.3765 138.032 12.7859C138.032 13.1952 138.364 13.5271 138.773 13.5271Z" fill="#8643DC"/>
<path d="M134.882 17.2331C135.291 17.2331 135.623 16.9013 135.623 16.4919C135.623 16.0826 135.291 15.7507 134.882 15.7507C134.472 15.7507 134.141 16.0826 134.141 16.4919C134.141 16.9013 134.472 17.2331 134.882 17.2331Z" fill="#8643DC"/>
<path d="M131.176 20.9392C131.585 20.9392 131.917 20.6074 131.917 20.198C131.917 19.7886 131.585 19.4568 131.176 19.4568C130.766 19.4568 130.434 19.7886 130.434 20.198C130.434 20.6074 130.766 20.9392 131.176 20.9392Z" fill="#8643DC"/>
<path d="M127.284 24.6452C127.694 24.6452 128.026 24.3134 128.026 23.904C128.026 23.4947 127.694 23.1628 127.284 23.1628C126.875 23.1628 126.543 23.4947 126.543 23.904C126.543 24.3134 126.875 24.6452 127.284 24.6452Z" fill="#8643DC"/>
<path d="M123.578 28.3515C123.988 28.3515 124.32 28.0197 124.32 27.6103C124.32 27.201 123.988 26.8691 123.578 26.8691C123.169 26.8691 122.837 27.201 122.837 27.6103C122.837 28.0197 123.169 28.3515 123.578 28.3515Z" fill="#8643DC"/>
<path d="M119.687 32.0576C120.096 32.0576 120.428 31.7258 120.428 31.3164C120.428 30.907 120.096 30.5752 119.687 30.5752C119.277 30.5752 118.946 30.907 118.946 31.3164C118.946 31.7258 119.277 32.0576 119.687 32.0576Z" fill="#8643DC"/>
<path d="M115.981 35.7637C116.39 35.7637 116.722 35.4318 116.722 35.0225C116.722 34.6131 116.39 34.2812 115.981 34.2812C115.571 34.2812 115.24 34.6131 115.24 35.0225C115.24 35.4318 115.571 35.7637 115.981 35.7637Z" fill="#8643DC"/>
<path d="M112.089 39.4697C112.499 39.4697 112.831 39.1379 112.831 38.7285C112.831 38.3191 112.499 37.9873 112.089 37.9873C111.68 37.9873 111.348 38.3191 111.348 38.7285C111.348 39.1379 111.68 39.4697 112.089 39.4697Z" fill="#8643DC"/>
<path d="M108.383 43.1758C108.793 43.1758 109.124 42.8439 109.124 42.4346C109.124 42.0252 108.793 41.6934 108.383 41.6934C107.974 41.6934 107.642 42.0252 107.642 42.4346C107.642 42.8439 107.974 43.1758 108.383 43.1758Z" fill="#8643DC"/>
<path d="M104.492 46.8818C104.901 46.8818 105.233 46.55 105.233 46.1406C105.233 45.7313 104.901 45.3994 104.492 45.3994C104.082 45.3994 103.751 45.7313 103.751 46.1406C103.751 46.55 104.082 46.8818 104.492 46.8818Z" fill="#8643DC"/>
<path d="M100.786 50.5879C101.195 50.5879 101.527 50.256 101.527 49.8467C101.527 49.4373 101.195 49.1055 100.786 49.1055C100.377 49.1055 100.045 49.4373 100.045 49.8467C100.045 50.256 100.377 50.5879 100.786 50.5879Z" fill="#8643DC"/>
<path d="M96.8945 54.2939C97.3038 54.2939 97.6357 53.9621 97.6357 53.5527C97.6357 53.1434 97.3038 52.8115 96.8945 52.8115C96.4851 52.8115 96.1533 53.1434 96.1533 53.5527C96.1533 53.9621 96.4851 54.2939 96.8945 54.2939Z" fill="#8643DC"/>
<path d="M93.1883 58C93.5977 58 93.9295 57.6681 93.9295 57.2588C93.9295 56.8494 93.5977 56.5176 93.1883 56.5176C92.779 56.5176 92.4471 56.8494 92.4471 57.2588C92.4471 57.6681 92.779 58 93.1883 58Z" fill="#8643DC"/>
<path d="M150.818 10.5622C151.227 10.5622 151.559 10.2304 151.559 9.82104C151.559 9.41168 151.227 9.07983 150.818 9.07983C150.409 9.07983 150.077 9.41168 150.077 9.82104C150.077 10.2304 150.409 10.5622 150.818 10.5622Z" fill="#8643DC"/>
<path d="M146.927 14.2683C147.336 14.2683 147.668 13.9365 147.668 13.5271C147.668 13.1177 147.336 12.7859 146.927 12.7859C146.517 12.7859 146.185 13.1177 146.185 13.5271C146.185 13.9365 146.517 14.2683 146.927 14.2683Z" fill="#8643DC"/>
<path d="M143.221 17.9743C143.63 17.9743 143.962 17.6425 143.962 17.2331C143.962 16.8238 143.63 16.4919 143.221 16.4919C142.811 16.4919 142.479 16.8238 142.479 17.2331C142.479 17.6425 142.811 17.9743 143.221 17.9743Z" fill="#8643DC"/>
<path d="M139.329 21.6804C139.738 21.6804 140.07 21.3486 140.07 20.9392C140.07 20.5298 139.738 20.198 139.329 20.198C138.92 20.198 138.588 20.5298 138.588 20.9392C138.588 21.3486 138.92 21.6804 139.329 21.6804Z" fill="#8643DC"/>
<path d="M135.623 25.3865C136.032 25.3865 136.364 25.0546 136.364 24.6453C136.364 24.2359 136.032 23.9041 135.623 23.9041C135.214 23.9041 134.882 24.2359 134.882 24.6453C134.882 25.0546 135.214 25.3865 135.623 25.3865Z" fill="#8643DC"/>
<path d="M131.732 29.0925C132.141 29.0925 132.473 28.7607 132.473 28.3513C132.473 27.9419 132.141 27.6101 131.732 27.6101C131.322 27.6101 130.991 27.9419 130.991 28.3513C130.991 28.7607 131.322 29.0925 131.732 29.0925Z" fill="#8643DC"/>
<path d="M128.026 32.7986C128.435 32.7986 128.767 32.4667 128.767 32.0574C128.767 31.648 128.435 31.3162 128.026 31.3162C127.616 31.3162 127.284 31.648 127.284 32.0574C127.284 32.4667 127.616 32.7986 128.026 32.7986Z" fill="#8643DC"/>
<path d="M124.134 36.5049C124.544 36.5049 124.876 36.173 124.876 35.7637C124.876 35.3543 124.544 35.0225 124.134 35.0225C123.725 35.0225 123.393 35.3543 123.393 35.7637C123.393 36.173 123.725 36.5049 124.134 36.5049Z" fill="#8643DC"/>
<path d="M120.243 40.2109C120.652 40.2109 120.984 39.8791 120.984 39.4697C120.984 39.0604 120.652 38.7285 120.243 38.7285C119.834 38.7285 119.502 39.0604 119.502 39.4697C119.502 39.8791 119.834 40.2109 120.243 40.2109Z" fill="#8643DC"/>
<path d="M116.537 43.917C116.946 43.917 117.278 43.5851 117.278 43.1758C117.278 42.7664 116.946 42.4346 116.537 42.4346C116.128 42.4346 115.796 42.7664 115.796 43.1758C115.796 43.5851 116.128 43.917 116.537 43.917Z" fill="#8643DC"/>
<path d="M112.645 47.623C113.055 47.623 113.387 47.2912 113.387 46.8818C113.387 46.4725 113.055 46.1406 112.645 46.1406C112.236 46.1406 111.904 46.4725 111.904 46.8818C111.904 47.2912 112.236 47.623 112.645 47.623Z" fill="#8643DC"/>
<path d="M108.939 51.3291C109.349 51.3291 109.681 50.9972 109.681 50.5879C109.681 50.1785 109.349 49.8467 108.939 49.8467C108.53 49.8467 108.198 50.1785 108.198 50.5879C108.198 50.9972 108.53 51.3291 108.939 51.3291Z" fill="#8643DC"/>
<path d="M105.048 55.0351C105.457 55.0351 105.789 54.7033 105.789 54.2939C105.789 53.8846 105.457 53.5527 105.048 53.5527C104.639 53.5527 104.307 53.8846 104.307 54.2939C104.307 54.7033 104.639 55.0351 105.048 55.0351Z" fill="#8643DC"/>
<path d="M101.342 58.7412C101.751 58.7412 102.083 58.4094 102.083 58C102.083 57.5906 101.751 57.2588 101.342 57.2588C100.933 57.2588 100.601 57.5906 100.601 58C100.601 58.4094 100.933 58.7412 101.342 58.7412Z" fill="#8643DC"/>
<path d="M97.4506 62.4472C97.8599 62.4472 98.1918 62.1154 98.1918 61.706C98.1918 61.2967 97.8599 60.9648 97.4506 60.9648C97.0412 60.9648 96.7094 61.2967 96.7094 61.706C96.7094 62.1154 97.0412 62.4472 97.4506 62.4472Z" fill="#8643DC"/>
<path d="M155.08 15.0096C155.489 15.0096 155.821 14.6777 155.821 14.2683C155.821 13.8589 155.489 13.5271 155.08 13.5271C154.671 13.5271 154.339 13.8589 154.339 14.2683C154.339 14.6777 154.671 15.0096 155.08 15.0096Z" fill="#8643DC"/>
<path d="M151.374 18.7156C151.783 18.7156 152.115 18.3837 152.115 17.9744C152.115 17.565 151.783 17.2332 151.374 17.2332C150.964 17.2332 150.633 17.565 150.633 17.9744C150.633 18.3837 150.964 18.7156 151.374 18.7156Z" fill="#8643DC"/>
<path d="M147.483 22.4217C147.892 22.4217 148.224 22.0898 148.224 21.6804C148.224 21.2711 147.892 20.9392 147.483 20.9392C147.073 20.9392 146.741 21.2711 146.741 21.6804C146.741 22.0898 147.073 22.4217 147.483 22.4217Z" fill="#8643DC"/>
<path d="M143.776 26.1277C144.186 26.1277 144.518 25.7958 144.518 25.3865C144.518 24.9771 144.186 24.6453 143.776 24.6453C143.367 24.6453 143.035 24.9771 143.035 25.3865C143.035 25.7958 143.367 26.1277 143.776 26.1277Z" fill="#8643DC"/>
<path d="M139.885 29.8338C140.294 29.8338 140.626 29.5019 140.626 29.0925C140.626 28.6832 140.294 28.3513 139.885 28.3513C139.476 28.3513 139.144 28.6832 139.144 29.0925C139.144 29.5019 139.476 29.8338 139.885 29.8338Z" fill="#8643DC"/>
<path d="M136.179 33.5398C136.588 33.5398 136.92 33.2079 136.92 32.7986C136.92 32.3892 136.588 32.0574 136.179 32.0574C135.77 32.0574 135.438 32.3892 135.438 32.7986C135.438 33.2079 135.77 33.5398 136.179 33.5398Z" fill="#8643DC"/>
<path d="M132.288 37.2459C132.697 37.2459 133.029 36.914 133.029 36.5046C133.029 36.0953 132.697 35.7634 132.288 35.7634C131.878 35.7634 131.546 36.0953 131.546 36.5046C131.546 36.914 131.878 37.2459 132.288 37.2459Z" fill="#8643DC"/>
<path d="M128.582 40.9519C128.991 40.9519 129.323 40.62 129.323 40.2107C129.323 39.8013 128.991 39.4695 128.582 39.4695C128.172 39.4695 127.84 39.8013 127.84 40.2107C127.84 40.62 128.172 40.9519 128.582 40.9519Z" fill="#8643DC"/>
<path d="M124.69 44.6582C125.099 44.6582 125.431 44.3263 125.431 43.917C125.431 43.5076 125.099 43.1758 124.69 43.1758C124.281 43.1758 123.949 43.5076 123.949 43.917C123.949 44.3263 124.281 44.6582 124.69 44.6582Z" fill="#8643DC"/>
<path d="M120.984 48.3643C121.393 48.3643 121.725 48.0324 121.725 47.623C121.725 47.2137 121.393 46.8818 120.984 46.8818C120.575 46.8818 120.243 47.2137 120.243 47.623C120.243 48.0324 120.575 48.3643 120.984 48.3643Z" fill="#8643DC"/>
<path d="M117.093 52.0704C117.502 52.0704 117.834 51.7385 117.834 51.3291C117.834 50.9197 117.502 50.5879 117.093 50.5879C116.683 50.5879 116.351 50.9197 116.351 51.3291C116.351 51.7385 116.683 52.0704 117.093 52.0704Z" fill="#8643DC"/>
<path d="M113.387 55.7764C113.796 55.7764 114.128 55.4445 114.128 55.0351C114.128 54.6258 113.796 54.2939 113.387 54.2939C112.977 54.2939 112.645 54.6258 112.645 55.0351C112.645 55.4445 112.977 55.7764 113.387 55.7764Z" fill="#8643DC"/>
<path d="M109.495 59.4825C109.905 59.4825 110.237 59.1506 110.237 58.7412C110.237 58.3318 109.905 58 109.495 58C109.086 58 108.754 58.3318 108.754 58.7412C108.754 59.1506 109.086 59.4825 109.495 59.4825Z" fill="#8643DC"/>
<path d="M105.789 63.1885C106.199 63.1885 106.53 62.8566 106.53 62.4473C106.53 62.0379 106.199 61.7061 105.789 61.7061C105.38 61.7061 105.048 62.0379 105.048 62.4473C105.048 62.8566 105.38 63.1885 105.789 63.1885Z" fill="#8643DC"/>
<path d="M101.898 67.0798C102.307 67.0798 102.639 66.748 102.639 66.3386C102.639 65.9293 102.307 65.5974 101.898 65.5974C101.489 65.5974 101.157 65.9293 101.157 66.3386C101.157 66.748 101.489 67.0798 101.898 67.0798Z" fill="#8643DC"/>
<path d="M159.527 19.4568C159.936 19.4568 160.268 19.125 160.268 18.7156C160.268 18.3063 159.936 17.9744 159.527 17.9744C159.118 17.9744 158.786 18.3063 158.786 18.7156C158.786 19.125 159.118 19.4568 159.527 19.4568Z" fill="#8643DC"/>
<path d="M155.636 23.1629C156.045 23.1629 156.377 22.831 156.377 22.4217C156.377 22.0123 156.045 21.6804 155.636 21.6804C155.226 21.6804 154.895 22.0123 154.895 22.4217C154.895 22.831 155.226 23.1629 155.636 23.1629Z" fill="#8643DC"/>
<path d="M151.93 26.8689C152.339 26.8689 152.671 26.5371 152.671 26.1277C152.671 25.7184 152.339 25.3865 151.93 25.3865C151.52 25.3865 151.188 25.7184 151.188 26.1277C151.188 26.5371 151.52 26.8689 151.93 26.8689Z" fill="#8643DC"/>
<path d="M148.038 30.575C148.448 30.575 148.779 30.2432 148.779 29.8338C148.779 29.4244 148.448 29.0925 148.038 29.0925C147.629 29.0925 147.297 29.4244 147.297 29.8338C147.297 30.2432 147.629 30.575 148.038 30.575Z" fill="#8643DC"/>
<path d="M144.332 34.281C144.742 34.281 145.073 33.9492 145.073 33.5398C145.073 33.1305 144.742 32.7986 144.332 32.7986C143.923 32.7986 143.591 33.1305 143.591 33.5398C143.591 33.9492 143.923 34.281 144.332 34.281Z" fill="#8643DC"/>
<path d="M140.441 37.9871C140.85 37.9871 141.182 37.6553 141.182 37.2459C141.182 36.8365 140.85 36.5046 140.441 36.5046C140.031 36.5046 139.7 36.8365 139.7 37.2459C139.7 37.6553 140.031 37.9871 140.441 37.9871Z" fill="#8643DC"/>
<path d="M136.735 41.6932C137.144 41.6932 137.476 41.3613 137.476 40.952C137.476 40.5426 137.144 40.2107 136.735 40.2107C136.325 40.2107 135.993 40.5426 135.993 40.952C135.993 41.3613 136.325 41.6932 136.735 41.6932Z" fill="#8643DC"/>
<path d="M132.843 45.3992C133.253 45.3992 133.585 45.0674 133.585 44.658C133.585 44.2486 133.253 43.9167 132.843 43.9167C132.434 43.9167 132.102 44.2486 132.102 44.658C132.102 45.0674 132.434 45.3992 132.843 45.3992Z" fill="#8643DC"/>
<path d="M129.137 49.1055C129.547 49.1055 129.879 48.7737 129.879 48.3643C129.879 47.9549 129.547 47.623 129.137 47.623C128.728 47.623 128.396 47.9549 128.396 48.3643C128.396 48.7737 128.728 49.1055 129.137 49.1055Z" fill="#8643DC"/>
<path d="M125.246 52.8116C125.655 52.8116 125.987 52.4797 125.987 52.0704C125.987 51.661 125.655 51.3291 125.246 51.3291C124.837 51.3291 124.505 51.661 124.505 52.0704C124.505 52.4797 124.837 52.8116 125.246 52.8116Z" fill="#8643DC"/>
<path d="M121.54 56.5176C121.949 56.5176 122.281 56.1858 122.281 55.7764C122.281 55.3671 121.949 55.0352 121.54 55.0352C121.131 55.0352 120.799 55.3671 120.799 55.7764C120.799 56.1858 121.131 56.5176 121.54 56.5176Z" fill="#8643DC"/>
<path d="M117.648 60.2237C118.058 60.2237 118.39 59.8918 118.39 59.4825C118.39 59.0731 118.058 58.7412 117.648 58.7412C117.239 58.7412 116.907 59.0731 116.907 59.4825C116.907 59.8918 117.239 60.2237 117.648 60.2237Z" fill="#8643DC"/>
<path d="M113.942 64.115C114.352 64.115 114.684 63.7831 114.684 63.3738C114.684 62.9644 114.352 62.6326 113.942 62.6326C113.533 62.6326 113.201 62.9644 113.201 63.3738C113.201 63.7831 113.533 64.115 113.942 64.115Z" fill="#8643DC"/>
<path d="M110.051 67.8211C110.46 67.8211 110.792 67.4892 110.792 67.0798C110.792 66.6705 110.46 66.3386 110.051 66.3386C109.642 66.3386 109.31 66.6705 109.31 67.0798C109.31 67.4892 109.642 67.8211 110.051 67.8211Z" fill="#8643DC"/>
<path d="M106.345 71.5271C106.754 71.5271 107.086 71.1952 107.086 70.7859C107.086 70.3765 106.754 70.0447 106.345 70.0447C105.936 70.0447 105.604 70.3765 105.604 70.7859C105.604 71.1952 105.936 71.5271 106.345 71.5271Z" fill="#8643DC"/>
<path d="M163.974 23.9043C164.384 23.9043 164.716 23.5724 164.716 23.1631C164.716 22.7537 164.384 22.4219 163.974 22.4219C163.565 22.4219 163.233 22.7537 163.233 23.1631C163.233 23.5724 163.565 23.9043 163.974 23.9043Z" fill="#8643DC"/>
<path d="M160.083 27.6103C160.492 27.6103 160.824 27.2785 160.824 26.8691C160.824 26.4598 160.492 26.1279 160.083 26.1279C159.674 26.1279 159.342 26.4598 159.342 26.8691C159.342 27.2785 159.674 27.6103 160.083 27.6103Z" fill="#8643DC"/>
<path d="M156.377 31.3164C156.786 31.3164 157.118 30.9845 157.118 30.5752C157.118 30.1658 156.786 29.834 156.377 29.834C155.968 29.834 155.636 30.1658 155.636 30.5752C155.636 30.9845 155.968 31.3164 156.377 31.3164Z" fill="#8643DC"/>
<path d="M152.486 35.0224C152.895 35.0224 153.227 34.6906 153.227 34.2812C153.227 33.8719 152.895 33.54 152.486 33.54C152.076 33.54 151.744 33.8719 151.744 34.2812C151.744 34.6906 152.076 35.0224 152.486 35.0224Z" fill="#8643DC"/>
<path d="M148.594 38.7285C149.004 38.7285 149.335 38.3967 149.335 37.9873C149.335 37.5779 149.004 37.2461 148.594 37.2461C148.185 37.2461 147.853 37.5779 147.853 37.9873C147.853 38.3967 148.185 38.7285 148.594 38.7285Z" fill="#8643DC"/>
<path d="M144.888 42.4346C145.298 42.4346 145.629 42.1027 145.629 41.6934C145.629 41.284 145.298 40.9521 144.888 40.9521C144.479 40.9521 144.147 41.284 144.147 41.6934C144.147 42.1027 144.479 42.4346 144.888 42.4346Z" fill="#8643DC"/>
<path d="M140.997 46.1406C141.406 46.1406 141.738 45.8088 141.738 45.3994C141.738 44.99 141.406 44.6582 140.997 44.6582C140.587 44.6582 140.256 44.99 140.256 45.3994C140.256 45.8088 140.587 46.1406 140.997 46.1406Z" fill="#8643DC"/>
<path d="M137.291 49.8467C137.7 49.8467 138.032 49.5148 138.032 49.1055C138.032 48.6961 137.7 48.3643 137.291 48.3643C136.881 48.3643 136.55 48.6961 136.55 49.1055C136.55 49.5148 136.881 49.8467 137.291 49.8467Z" fill="#8643DC"/>
<path d="M133.399 53.553C133.809 53.553 134.14 53.2211 134.14 52.8118C134.14 52.4024 133.809 52.0706 133.399 52.0706C132.99 52.0706 132.658 52.4024 132.658 52.8118C132.658 53.2211 132.99 53.553 133.399 53.553Z" fill="#8643DC"/>
<path d="M129.693 57.259C130.103 57.259 130.434 56.9272 130.434 56.5178C130.434 56.1085 130.103 55.7766 129.693 55.7766C129.284 55.7766 128.952 56.1085 128.952 56.5178C128.952 56.9272 129.284 57.259 129.693 57.259Z" fill="#8643DC"/>
<path d="M125.802 61.1502C126.211 61.1502 126.543 60.8183 126.543 60.409C126.543 59.9996 126.211 59.6677 125.802 59.6677C125.393 59.6677 125.061 59.9996 125.061 60.409C125.061 60.8183 125.393 61.1502 125.802 61.1502Z" fill="#8643DC"/>
<path d="M122.096 64.8565C122.505 64.8565 122.837 64.5246 122.837 64.1153C122.837 63.7059 122.505 63.374 122.096 63.374C121.686 63.374 121.355 63.7059 121.355 64.1153C121.355 64.5246 121.686 64.8565 122.096 64.8565Z" fill="#8643DC"/>
<path d="M118.204 68.5625C118.614 68.5625 118.946 68.2307 118.946 67.8213C118.946 67.412 118.614 67.0801 118.204 67.0801C117.795 67.0801 117.463 67.412 117.463 67.8213C117.463 68.2307 117.795 68.5625 118.204 68.5625Z" fill="#8643DC"/>
<path d="M114.498 72.2686C114.908 72.2686 115.239 71.9368 115.239 71.5274C115.239 71.118 114.908 70.7861 114.498 70.7861C114.089 70.7861 113.757 71.118 113.757 71.5274C113.757 71.9368 114.089 72.2686 114.498 72.2686Z" fill="#8643DC"/>
<path d="M110.607 75.9747C111.016 75.9747 111.348 75.6428 111.348 75.2334C111.348 74.8241 111.016 74.4922 110.607 74.4922C110.198 74.4922 109.866 74.8241 109.866 75.2334C109.866 75.6428 110.198 75.9747 110.607 75.9747Z" fill="#8643DC"/>
<path d="M168.236 28.3515C168.646 28.3515 168.978 28.0197 168.978 27.6103C168.978 27.201 168.646 26.8691 168.236 26.8691C167.827 26.8691 167.495 27.201 167.495 27.6103C167.495 28.0197 167.827 28.3515 168.236 28.3515Z" fill="#8643DC"/>
<path d="M164.53 32.0576C164.94 32.0576 165.272 31.7258 165.272 31.3164C165.272 30.907 164.94 30.5752 164.53 30.5752C164.121 30.5752 163.789 30.907 163.789 31.3164C163.789 31.7258 164.121 32.0576 164.53 32.0576Z" fill="#8643DC"/>
<path d="M160.639 35.7637C161.048 35.7637 161.38 35.4318 161.38 35.0225C161.38 34.6131 161.048 34.2812 160.639 34.2812C160.23 34.2812 159.898 34.6131 159.898 35.0225C159.898 35.4318 160.23 35.7637 160.639 35.7637Z" fill="#8643DC"/>
<path d="M156.933 39.4697C157.342 39.4697 157.674 39.1379 157.674 38.7285C157.674 38.3191 157.342 37.9873 156.933 37.9873C156.523 37.9873 156.192 38.3191 156.192 38.7285C156.192 39.1379 156.523 39.4697 156.933 39.4697Z" fill="#8643DC"/>
<path d="M153.042 43.1758C153.451 43.1758 153.783 42.8439 153.783 42.4346C153.783 42.0252 153.451 41.6934 153.042 41.6934C152.632 41.6934 152.3 42.0252 152.3 42.4346C152.3 42.8439 152.632 43.1758 153.042 43.1758Z" fill="#8643DC"/>
<path d="M149.336 46.8818C149.745 46.8818 150.077 46.55 150.077 46.1406C150.077 45.7313 149.745 45.3994 149.336 45.3994C148.926 45.3994 148.594 45.7313 148.594 46.1406C148.594 46.55 148.926 46.8818 149.336 46.8818Z" fill="#8643DC"/>
<path d="M145.444 50.5879C145.854 50.5879 146.185 50.256 146.185 49.8467C146.185 49.4373 145.854 49.1055 145.444 49.1055C145.035 49.1055 144.703 49.4373 144.703 49.8467C144.703 50.256 145.035 50.5879 145.444 50.5879Z" fill="#8643DC"/>
<path d="M141.738 54.2939C142.148 54.2939 142.479 53.9621 142.479 53.5527C142.479 53.1434 142.148 52.8115 141.738 52.8115C141.329 52.8115 140.997 53.1434 140.997 53.5527C140.997 53.9621 141.329 54.2939 141.738 54.2939Z" fill="#8643DC"/>
<path d="M137.847 58.0002C138.256 58.0002 138.588 57.6684 138.588 57.259C138.588 56.8497 138.256 56.5178 137.847 56.5178C137.437 56.5178 137.106 56.8497 137.106 57.259C137.106 57.6684 137.437 58.0002 137.847 58.0002Z" fill="#8643DC"/>
<path d="M133.955 61.8916C134.365 61.8916 134.697 61.5597 134.697 61.1504C134.697 60.741 134.365 60.4092 133.955 60.4092C133.546 60.4092 133.214 60.741 133.214 61.1504C133.214 61.5597 133.546 61.8916 133.955 61.8916Z" fill="#8643DC"/>
<path d="M130.249 65.5976C130.659 65.5976 130.99 65.2658 130.99 64.8564C130.99 64.4471 130.659 64.1152 130.249 64.1152C129.84 64.1152 129.508 64.4471 129.508 64.8564C129.508 65.2658 129.84 65.5976 130.249 65.5976Z" fill="#8643DC"/>
<path d="M126.358 69.3037C126.767 69.3037 127.099 68.9719 127.099 68.5625C127.099 68.1531 126.767 67.8213 126.358 67.8213C125.948 67.8213 125.617 68.1531 125.617 68.5625C125.617 68.9719 125.948 69.3037 126.358 69.3037Z" fill="#8643DC"/>
<path d="M122.652 73.0097C123.061 73.0097 123.393 72.6779 123.393 72.2685C123.393 71.8592 123.061 71.5273 122.652 71.5273C122.242 71.5273 121.91 71.8592 121.91 72.2685C121.91 72.6779 122.242 73.0097 122.652 73.0097Z" fill="#8643DC"/>
<path d="M118.76 76.7158C119.17 76.7158 119.502 76.384 119.502 75.9746C119.502 75.5652 119.17 75.2334 118.76 75.2334C118.351 75.2334 118.019 75.5652 118.019 75.9746C118.019 76.384 118.351 76.7158 118.76 76.7158Z" fill="#8643DC"/>
<path d="M115.054 80.4219C115.464 80.4219 115.796 80.09 115.796 79.6807C115.796 79.2713 115.464 78.9395 115.054 78.9395C114.645 78.9395 114.313 79.2713 114.313 79.6807C114.313 80.09 114.645 80.4219 115.054 80.4219Z" fill="#8643DC"/>
<path d="M172.684 32.7988C173.093 32.7988 173.425 32.467 173.425 32.0576C173.425 31.6482 173.093 31.3164 172.684 31.3164C172.274 31.3164 171.943 31.6482 171.943 32.0576C171.943 32.467 172.274 32.7988 172.684 32.7988Z" fill="#8643DC"/>
<path d="M168.792 36.5049C169.202 36.5049 169.534 36.173 169.534 35.7637C169.534 35.3543 169.202 35.0225 168.792 35.0225C168.383 35.0225 168.051 35.3543 168.051 35.7637C168.051 36.173 168.383 36.5049 168.792 36.5049Z" fill="#8643DC"/>
<path d="M165.086 40.2109C165.496 40.2109 165.828 39.8791 165.828 39.4697C165.828 39.0604 165.496 38.7285 165.086 38.7285C164.677 38.7285 164.345 39.0604 164.345 39.4697C164.345 39.8791 164.677 40.2109 165.086 40.2109Z" fill="#8643DC"/>
<path d="M161.195 43.917C161.604 43.917 161.936 43.5851 161.936 43.1758C161.936 42.7664 161.604 42.4346 161.195 42.4346C160.786 42.4346 160.454 42.7664 160.454 43.1758C160.454 43.5851 160.786 43.917 161.195 43.917Z" fill="#8643DC"/>
<path d="M157.489 47.623C157.898 47.623 158.23 47.2912 158.23 46.8818C158.23 46.4725 157.898 46.1406 157.489 46.1406C157.079 46.1406 156.748 46.4725 156.748 46.8818C156.748 47.2912 157.079 47.623 157.489 47.623Z" fill="#8643DC"/>
<path d="M153.597 51.3291C154.007 51.3291 154.339 50.9972 154.339 50.5879C154.339 50.1785 154.007 49.8467 153.597 49.8467C153.188 49.8467 152.856 50.1785 152.856 50.5879C152.856 50.9972 153.188 51.3291 153.597 51.3291Z" fill="#8643DC"/>
<path d="M149.891 55.0351C150.301 55.0351 150.633 54.7033 150.633 54.2939C150.633 53.8846 150.301 53.5527 149.891 53.5527C149.482 53.5527 149.15 53.8846 149.15 54.2939C149.15 54.7033 149.482 55.0351 149.891 55.0351Z" fill="#8643DC"/>
<path d="M146 58.9267C146.409 58.9267 146.741 58.5949 146.741 58.1855C146.741 57.7762 146.409 57.4443 146 57.4443C145.591 57.4443 145.259 57.7762 145.259 58.1855C145.259 58.5949 145.591 58.9267 146 58.9267Z" fill="#8643DC"/>
<path d="M142.294 62.6328C142.703 62.6328 143.035 62.301 143.035 61.8916C143.035 61.4822 142.703 61.1504 142.294 61.1504C141.885 61.1504 141.553 61.4822 141.553 61.8916C141.553 62.301 141.885 62.6328 142.294 62.6328Z" fill="#8643DC"/>
<path d="M138.403 66.3389C138.812 66.3389 139.144 66.007 139.144 65.5976C139.144 65.1883 138.812 64.8564 138.403 64.8564C137.993 64.8564 137.661 65.1883 137.661 65.5976C137.661 66.007 137.993 66.3389 138.403 66.3389Z" fill="#8643DC"/>
<path d="M134.696 70.0449C135.106 70.0449 135.438 69.7131 135.438 69.3037C135.438 68.8943 135.106 68.5625 134.696 68.5625C134.287 68.5625 133.955 68.8943 133.955 69.3037C133.955 69.7131 134.287 70.0449 134.696 70.0449Z" fill="#8643DC"/>
<path d="M130.805 73.751C131.215 73.751 131.546 73.4191 131.546 73.0098C131.546 72.6004 131.215 72.2686 130.805 72.2686C130.396 72.2686 130.064 72.6004 130.064 73.0098C130.064 73.4191 130.396 73.751 130.805 73.751Z" fill="#8643DC"/>
<path d="M127.099 77.457C127.508 77.457 127.84 77.1252 127.84 76.7158C127.84 76.3065 127.508 75.9746 127.099 75.9746C126.69 75.9746 126.358 76.3065 126.358 76.7158C126.358 77.1252 126.69 77.457 127.099 77.457Z" fill="#8643DC"/>
<path d="M123.208 81.1631C123.617 81.1631 123.949 80.8312 123.949 80.4219C123.949 80.0125 123.617 79.6807 123.208 79.6807C122.798 79.6807 122.466 80.0125 122.466 80.4219C122.466 80.8312 122.798 81.1631 123.208 81.1631Z" fill="#8643DC"/>
<path d="M119.502 84.8691C119.911 84.8691 120.243 84.5373 120.243 84.1279C120.243 83.7186 119.911 83.3867 119.502 83.3867C119.092 83.3867 118.76 83.7186 118.76 84.1279C118.76 84.5373 119.092 84.8691 119.502 84.8691Z" fill="#8643DC"/>
<path d="M176.946 37.2461C177.355 37.2461 177.687 36.9142 177.687 36.5049C177.687 36.0955 177.355 35.7637 176.946 35.7637C176.536 35.7637 176.204 36.0955 176.204 36.5049C176.204 36.9142 176.536 37.2461 176.946 37.2461Z" fill="#8643DC"/>
<path d="M173.239 40.9522C173.649 40.9522 173.981 40.6203 173.981 40.2109C173.981 39.8016 173.649 39.4697 173.239 39.4697C172.83 39.4697 172.498 39.8016 172.498 40.2109C172.498 40.6203 172.83 40.9522 173.239 40.9522Z" fill="#8643DC"/>
<path d="M169.348 44.6582C169.758 44.6582 170.089 44.3263 170.089 43.917C170.089 43.5076 169.758 43.1758 169.348 43.1758C168.939 43.1758 168.607 43.5076 168.607 43.917C168.607 44.3263 168.939 44.6582 169.348 44.6582Z" fill="#8643DC"/>
<path d="M165.642 48.3643C166.051 48.3643 166.383 48.0324 166.383 47.623C166.383 47.2137 166.051 46.8818 165.642 46.8818C165.233 46.8818 164.901 47.2137 164.901 47.623C164.901 48.0324 165.233 48.3643 165.642 48.3643Z" fill="#8643DC"/>
<path d="M161.751 52.0704C162.16 52.0704 162.492 51.7385 162.492 51.3291C162.492 50.9197 162.16 50.5879 161.751 50.5879C161.341 50.5879 161.01 50.9197 161.01 51.3291C161.01 51.7385 161.341 52.0704 161.751 52.0704Z" fill="#8643DC"/>
<path d="M158.045 55.9617C158.454 55.9617 158.786 55.6298 158.786 55.2205C158.786 54.8111 158.454 54.4792 158.045 54.4792C157.635 54.4792 157.304 54.8111 157.304 55.2205C157.304 55.6298 157.635 55.9617 158.045 55.9617Z" fill="#8643DC"/>
<path d="M154.153 59.6677C154.563 59.6677 154.895 59.3359 154.895 58.9265C154.895 58.5171 154.563 58.1853 154.153 58.1853C153.744 58.1853 153.412 58.5171 153.412 58.9265C153.412 59.3359 153.744 59.6677 154.153 59.6677Z" fill="#8643DC"/>
<path d="M150.447 63.374C150.857 63.374 151.189 63.0422 151.189 62.6328C151.189 62.2234 150.857 61.8916 150.447 61.8916C150.038 61.8916 149.706 62.2234 149.706 62.6328C149.706 63.0422 150.038 63.374 150.447 63.374Z" fill="#8643DC"/>
<path d="M146.556 67.0801C146.965 67.0801 147.297 66.7482 147.297 66.3389C147.297 65.9295 146.965 65.5977 146.556 65.5977C146.146 65.5977 145.815 65.9295 145.815 66.3389C145.815 66.7482 146.146 67.0801 146.556 67.0801Z" fill="#8643DC"/>
<path d="M142.85 70.7861C143.259 70.7861 143.591 70.4543 143.591 70.0449C143.591 69.6356 143.259 69.3037 142.85 69.3037C142.44 69.3037 142.109 69.6356 142.109 70.0449C142.109 70.4543 142.44 70.7861 142.85 70.7861Z" fill="#8643DC"/>
<path d="M138.958 74.4922C139.368 74.4922 139.7 74.1603 139.7 73.751C139.7 73.3416 139.368 73.0098 138.958 73.0098C138.549 73.0098 138.217 73.3416 138.217 73.751C138.217 74.1603 138.549 74.4922 138.958 74.4922Z" fill="#8643DC"/>
<path d="M135.252 78.1982C135.662 78.1982 135.994 77.8664 135.994 77.457C135.994 77.0477 135.662 76.7158 135.252 76.7158C134.843 76.7158 134.511 77.0477 134.511 77.457C134.511 77.8664 134.843 78.1982 135.252 78.1982Z" fill="#8643DC"/>
<path d="M131.361 81.9043C131.77 81.9043 132.102 81.5724 132.102 81.1631C132.102 80.7537 131.77 80.4219 131.361 80.4219C130.952 80.4219 130.62 80.7537 130.62 81.1631C130.62 81.5724 130.952 81.9043 131.361 81.9043Z" fill="#8643DC"/>
<path d="M127.655 85.6103C128.064 85.6103 128.396 85.2785 128.396 84.8691C128.396 84.4598 128.064 84.1279 127.655 84.1279C127.246 84.1279 126.914 84.4598 126.914 84.8691C126.914 85.2785 127.246 85.6103 127.655 85.6103Z" fill="#8643DC"/>
<path d="M123.764 89.3164C124.173 89.3164 124.505 88.9845 124.505 88.5752C124.505 88.1658 124.173 87.834 123.764 87.834C123.354 87.834 123.022 88.1658 123.022 88.5752C123.022 88.9845 123.354 89.3164 123.764 89.3164Z" fill="#8643DC"/>
<path d="M181.393 41.6934C181.802 41.6934 182.134 41.3616 182.134 40.9522C182.134 40.5428 181.802 40.2109 181.393 40.2109C180.984 40.2109 180.652 40.5428 180.652 40.9522C180.652 41.3616 180.984 41.6934 181.393 41.6934Z" fill="#8643DC"/>
<path d="M177.687 45.3995C178.096 45.3995 178.428 45.0676 178.428 44.6583C178.428 44.2489 178.096 43.917 177.687 43.917C177.277 43.917 176.946 44.2489 176.946 44.6583C176.946 45.0676 177.277 45.3995 177.687 45.3995Z" fill="#8643DC"/>
<path d="M173.795 49.1055C174.205 49.1055 174.537 48.7737 174.537 48.3643C174.537 47.9549 174.205 47.623 173.795 47.623C173.386 47.623 173.054 47.9549 173.054 48.3643C173.054 48.7737 173.386 49.1055 173.795 49.1055Z" fill="#8643DC"/>
<path d="M170.089 52.9969C170.499 52.9969 170.831 52.665 170.831 52.2556C170.831 51.8462 170.499 51.5144 170.089 51.5144C169.68 51.5144 169.348 51.8462 169.348 52.2556C169.348 52.665 169.68 52.9969 170.089 52.9969Z" fill="#8643DC"/>
<path d="M166.198 56.7029C166.607 56.7029 166.939 56.371 166.939 55.9617C166.939 55.5523 166.607 55.2205 166.198 55.2205C165.789 55.2205 165.457 55.5523 165.457 55.9617C165.457 56.371 165.789 56.7029 166.198 56.7029Z" fill="#8643DC"/>
<path d="M162.307 60.409C162.716 60.409 163.048 60.0771 163.048 59.6677C163.048 59.2584 162.716 58.9265 162.307 58.9265C161.897 58.9265 161.565 59.2584 161.565 59.6677C161.565 60.0771 161.897 60.409 162.307 60.409Z" fill="#8643DC"/>
<path d="M158.601 64.1153C159.01 64.1153 159.342 63.7834 159.342 63.374C159.342 62.9647 159.01 62.6328 158.601 62.6328C158.191 62.6328 157.859 62.9647 157.859 63.374C157.859 63.7834 158.191 64.1153 158.601 64.1153Z" fill="#8643DC"/>
<path d="M154.709 67.8213C155.119 67.8213 155.45 67.4894 155.45 67.0801C155.45 66.6707 155.119 66.3389 154.709 66.3389C154.3 66.3389 153.968 66.6707 153.968 67.0801C153.968 67.4894 154.3 67.8213 154.709 67.8213Z" fill="#8643DC"/>
<path d="M151.003 71.5274C151.413 71.5274 151.744 71.1955 151.744 70.7861C151.744 70.3768 151.413 70.0449 151.003 70.0449C150.594 70.0449 150.262 70.3768 150.262 70.7861C150.262 71.1955 150.594 71.5274 151.003 71.5274Z" fill="#8643DC"/>
<path d="M147.112 75.2334C147.521 75.2334 147.853 74.9015 147.853 74.4922C147.853 74.0828 147.521 73.751 147.112 73.751C146.702 73.751 146.371 74.0828 146.371 74.4922C146.371 74.9015 146.702 75.2334 147.112 75.2334Z" fill="#8643DC"/>
<path d="M143.406 78.9395C143.815 78.9395 144.147 78.6076 144.147 78.1982C144.147 77.7889 143.815 77.457 143.406 77.457C142.996 77.457 142.665 77.7889 142.665 78.1982C142.665 78.6076 142.996 78.9395 143.406 78.9395Z" fill="#8643DC"/>
<path d="M139.514 82.6455C139.924 82.6455 140.255 82.3137 140.255 81.9043C140.255 81.4949 139.924 81.1631 139.514 81.1631C139.105 81.1631 138.773 81.4949 138.773 81.9043C138.773 82.3137 139.105 82.6455 139.514 82.6455Z" fill="#8643DC"/>
<path d="M135.808 86.3516C136.218 86.3516 136.549 86.0197 136.549 85.6103C136.549 85.201 136.218 84.8691 135.808 84.8691C135.399 84.8691 135.067 85.201 135.067 85.6103C135.067 86.0197 135.399 86.3516 135.808 86.3516Z" fill="#8643DC"/>
<path d="M131.917 90.0577C132.326 90.0577 132.658 89.7258 132.658 89.3164C132.658 88.907 132.326 88.5752 131.917 88.5752C131.507 88.5752 131.176 88.907 131.176 89.3164C131.176 89.7258 131.507 90.0577 131.917 90.0577Z" fill="#8643DC"/>
<path d="M128.211 93.7637C128.62 93.7637 128.952 93.4318 128.952 93.0225C128.952 92.6131 128.62 92.2812 128.211 92.2812C127.801 92.2812 127.47 92.6131 127.47 93.0225C127.47 93.4318 127.801 93.7637 128.211 93.7637Z" fill="#8643DC"/>
<path d="M185.84 46.1406C186.249 46.1406 186.581 45.8088 186.581 45.3994C186.581 44.99 186.249 44.6582 185.84 44.6582C185.431 44.6582 185.099 44.99 185.099 45.3994C185.099 45.8088 185.431 46.1406 185.84 46.1406Z" fill="#8643DC"/>
<path d="M181.949 50.032C182.358 50.032 182.69 49.7002 182.69 49.2908C182.69 48.8815 182.358 48.5496 181.949 48.5496C181.539 48.5496 181.208 48.8815 181.208 49.2908C181.208 49.7002 181.539 50.032 181.949 50.032Z" fill="#8643DC"/>
<path d="M178.243 53.7381C178.652 53.7381 178.984 53.4062 178.984 52.9969C178.984 52.5875 178.652 52.2556 178.243 52.2556C177.833 52.2556 177.502 52.5875 177.502 52.9969C177.502 53.4062 177.833 53.7381 178.243 53.7381Z" fill="#8643DC"/>
<path d="M174.351 57.4441C174.761 57.4441 175.093 57.1123 175.093 56.7029C175.093 56.2936 174.761 55.9617 174.351 55.9617C173.942 55.9617 173.61 56.2936 173.61 56.7029C173.61 57.1123 173.942 57.4441 174.351 57.4441Z" fill="#8643DC"/>
<path d="M170.645 61.1502C171.055 61.1502 171.387 60.8183 171.387 60.409C171.387 59.9996 171.055 59.6677 170.645 59.6677C170.236 59.6677 169.904 59.9996 169.904 60.409C169.904 60.8183 170.236 61.1502 170.645 61.1502Z" fill="#8643DC"/>
<path d="M166.754 64.8562C167.163 64.8562 167.495 64.5244 167.495 64.115C167.495 63.7057 167.163 63.3738 166.754 63.3738C166.345 63.3738 166.013 63.7057 166.013 64.115C166.013 64.5244 166.345 64.8562 166.754 64.8562Z" fill="#8643DC"/>
<path d="M163.048 68.5623C163.457 68.5623 163.789 68.2305 163.789 67.8211C163.789 67.4117 163.457 67.0798 163.048 67.0798C162.639 67.0798 162.307 67.4117 162.307 67.8211C162.307 68.2305 162.639 68.5623 163.048 68.5623Z" fill="#8643DC"/>
<path d="M159.156 72.2684C159.566 72.2684 159.898 71.9365 159.898 71.5271C159.898 71.1178 159.566 70.7859 159.156 70.7859C158.747 70.7859 158.415 71.1178 158.415 71.5271C158.415 71.9365 158.747 72.2684 159.156 72.2684Z" fill="#8643DC"/>
<path d="M155.45 75.9744C155.86 75.9744 156.192 75.6426 156.192 75.2332C156.192 74.8238 155.86 74.4919 155.45 74.4919C155.041 74.4919 154.709 74.8238 154.709 75.2332C154.709 75.6426 155.041 75.9744 155.45 75.9744Z" fill="#8643DC"/>
<path d="M151.559 79.6805C151.968 79.6805 152.3 79.3486 152.3 78.9393C152.3 78.5299 151.968 78.198 151.559 78.198C151.15 78.198 150.818 78.5299 150.818 78.9393C150.818 79.3486 151.15 79.6805 151.559 79.6805Z" fill="#8643DC"/>
<path d="M147.668 83.3868C148.077 83.3868 148.409 83.0549 148.409 82.6456C148.409 82.2362 148.077 81.9043 147.668 81.9043C147.258 81.9043 146.926 82.2362 146.926 82.6456C146.926 83.0549 147.258 83.3868 147.668 83.3868Z" fill="#8643DC"/>
<path d="M143.962 87.0928C144.371 87.0928 144.703 86.761 144.703 86.3516C144.703 85.9422 144.371 85.6104 143.962 85.6104C143.552 85.6104 143.22 85.9422 143.22 86.3516C143.22 86.761 143.552 87.0928 143.962 87.0928Z" fill="#8643DC"/>
<path d="M140.07 90.7989C140.48 90.7989 140.812 90.467 140.812 90.0577C140.812 89.6483 140.48 89.3164 140.07 89.3164C139.661 89.3164 139.329 89.6483 139.329 90.0577C139.329 90.467 139.661 90.7989 140.07 90.7989Z" fill="#8643DC"/>
<path d="M136.364 94.5049C136.774 94.5049 137.105 94.1731 137.105 93.7637C137.105 93.3544 136.774 93.0225 136.364 93.0225C135.955 93.0225 135.623 93.3544 135.623 93.7637C135.623 94.1731 135.955 94.5049 136.364 94.5049Z" fill="#8643DC"/>
<path d="M132.473 98.211C132.882 98.211 133.214 97.8791 133.214 97.4698C133.214 97.0604 132.882 96.7285 132.473 96.7285C132.063 96.7285 131.732 97.0604 131.732 97.4698C131.732 97.8791 132.063 98.211 132.473 98.211Z" fill="#8643DC"/>
<path d="M190.102 50.7732C190.512 50.7732 190.844 50.4413 190.844 50.032C190.844 49.6226 190.512 49.2908 190.102 49.2908C189.693 49.2908 189.361 49.6226 189.361 50.032C189.361 50.4413 189.693 50.7732 190.102 50.7732Z" fill="#8643DC"/>
<path d="M186.396 54.4792C186.806 54.4792 187.137 54.1474 187.137 53.738C187.137 53.3287 186.806 52.9968 186.396 52.9968C185.987 52.9968 185.655 53.3287 185.655 53.738C185.655 54.1474 185.987 54.4792 186.396 54.4792Z" fill="#8643DC"/>
<path d="M182.505 58.1853C182.914 58.1853 183.246 57.8534 183.246 57.4441C183.246 57.0347 182.914 56.7029 182.505 56.7029C182.095 56.7029 181.764 57.0347 181.764 57.4441C181.764 57.8534 182.095 58.1853 182.505 58.1853Z" fill="#8643DC"/>
<path d="M178.799 61.8913C179.208 61.8913 179.54 61.5595 179.54 61.1501C179.54 60.7408 179.208 60.4089 178.799 60.4089C178.389 60.4089 178.057 60.7408 178.057 61.1501C178.057 61.5595 178.389 61.8913 178.799 61.8913Z" fill="#8643DC"/>
<path d="M174.907 65.5974C175.317 65.5974 175.648 65.2656 175.648 64.8562C175.648 64.4468 175.317 64.115 174.907 64.115C174.498 64.115 174.166 64.4468 174.166 64.8562C174.166 65.2656 174.498 65.5974 174.907 65.5974Z" fill="#8643DC"/>
<path d="M171.201 69.3035C171.611 69.3035 171.943 68.9716 171.943 68.5622C171.943 68.1529 171.611 67.821 171.201 67.821C170.792 67.821 170.46 68.1529 170.46 68.5622C170.46 68.9716 170.792 69.3035 171.201 69.3035Z" fill="#8643DC"/>
<path d="M167.31 73.0095C167.719 73.0095 168.051 72.6777 168.051 72.2683C168.051 71.8589 167.719 71.5271 167.31 71.5271C166.9 71.5271 166.569 71.8589 166.569 72.2683C166.569 72.6777 166.9 73.0095 167.31 73.0095Z" fill="#8643DC"/>
<path d="M163.604 76.7156C164.013 76.7156 164.345 76.3837 164.345 75.9744C164.345 75.565 164.013 75.2332 163.604 75.2332C163.194 75.2332 162.863 75.565 162.863 75.9744C162.863 76.3837 163.194 76.7156 163.604 76.7156Z" fill="#8643DC"/>
<path d="M159.712 80.4219C160.122 80.4219 160.454 80.09 160.454 79.6807C160.454 79.2713 160.122 78.9395 159.712 78.9395C159.303 78.9395 158.971 79.2713 158.971 79.6807C158.971 80.09 159.303 80.4219 159.712 80.4219Z" fill="#8643DC"/>
<path d="M156.006 84.1279C156.416 84.1279 156.748 83.7961 156.748 83.3867C156.748 82.9773 156.416 82.6455 156.006 82.6455C155.597 82.6455 155.265 82.9773 155.265 83.3867C155.265 83.7961 155.597 84.1279 156.006 84.1279Z" fill="#8643DC"/>
<path d="M152.115 87.834C152.524 87.834 152.856 87.5021 152.856 87.0928C152.856 86.6834 152.524 86.3516 152.115 86.3516C151.706 86.3516 151.374 86.6834 151.374 87.0928C151.374 87.5021 151.706 87.834 152.115 87.834Z" fill="#8643DC"/>
<path d="M148.409 91.54C148.818 91.54 149.15 91.2082 149.15 90.7988C149.15 90.3895 148.818 90.0576 148.409 90.0576C148 90.0576 147.668 90.3895 147.668 90.7988C147.668 91.2082 148 91.54 148.409 91.54Z" fill="#8643DC"/>
<path d="M144.518 95.2461C144.927 95.2461 145.259 94.9142 145.259 94.5049C145.259 94.0955 144.927 93.7637 144.518 93.7637C144.108 93.7637 143.776 94.0955 143.776 94.5049C143.776 94.9142 144.108 95.2461 144.518 95.2461Z" fill="#8643DC"/>
<path d="M140.811 98.9521C141.221 98.9521 141.553 98.6203 141.553 98.2109C141.553 97.8016 141.221 97.4697 140.811 97.4697C140.402 97.4697 140.07 97.8016 140.07 98.2109C140.07 98.6203 140.402 98.9521 140.811 98.9521Z" fill="#8643DC"/>
<path d="M136.92 102.658C137.33 102.658 137.661 102.326 137.661 101.917C137.661 101.508 137.33 101.176 136.92 101.176C136.511 101.176 136.179 101.508 136.179 101.917C136.179 102.326 136.511 102.658 136.92 102.658Z" fill="#8643DC"/>
<path d="M194.549 55.2204C194.959 55.2204 195.291 54.8886 195.291 54.4792C195.291 54.0699 194.959 53.738 194.549 53.738C194.14 53.738 193.808 54.0699 193.808 54.4792C193.808 54.8886 194.14 55.2204 194.549 55.2204Z" fill="#8643DC"/>
<path d="M190.658 58.9265C191.067 58.9265 191.399 58.5947 191.399 58.1853C191.399 57.7759 191.067 57.4441 190.658 57.4441C190.249 57.4441 189.917 57.7759 189.917 58.1853C189.917 58.5947 190.249 58.9265 190.658 58.9265Z" fill="#8643DC"/>
<path d="M186.952 62.6326C187.361 62.6326 187.693 62.3007 187.693 61.8913C187.693 61.482 187.361 61.1501 186.952 61.1501C186.543 61.1501 186.211 61.482 186.211 61.8913C186.211 62.3007 186.543 62.6326 186.952 62.6326Z" fill="#8643DC"/>
<path d="M183.061 66.3386C183.47 66.3386 183.802 66.0068 183.802 65.5974C183.802 65.188 183.47 64.8562 183.061 64.8562C182.651 64.8562 182.319 65.188 182.319 65.5974C182.319 66.0068 182.651 66.3386 183.061 66.3386Z" fill="#8643DC"/>
<path d="M179.355 70.0447C179.764 70.0447 180.096 69.7128 180.096 69.3035C180.096 68.8941 179.764 68.5623 179.355 68.5623C178.945 68.5623 178.613 68.8941 178.613 69.3035C178.613 69.7128 178.945 70.0447 179.355 70.0447Z" fill="#8643DC"/>
<path d="M175.463 73.7507C175.873 73.7507 176.205 73.4189 176.205 73.0095C176.205 72.6002 175.873 72.2683 175.463 72.2683C175.054 72.2683 174.722 72.6002 174.722 73.0095C174.722 73.4189 175.054 73.7507 175.463 73.7507Z" fill="#8643DC"/>
<path d="M171.757 77.4568C172.167 77.4568 172.498 77.1249 172.498 76.7156C172.498 76.3062 172.167 75.9744 171.757 75.9744C171.348 75.9744 171.016 76.3062 171.016 76.7156C171.016 77.1249 171.348 77.4568 171.757 77.4568Z" fill="#8643DC"/>
<path d="M167.866 81.1631C168.275 81.1631 168.607 80.8312 168.607 80.4219C168.607 80.0125 168.275 79.6807 167.866 79.6807C167.456 79.6807 167.125 80.0125 167.125 80.4219C167.125 80.8312 167.456 81.1631 167.866 81.1631Z" fill="#8643DC"/>
<path d="M164.16 84.8691C164.569 84.8691 164.901 84.5373 164.901 84.1279C164.901 83.7186 164.569 83.3867 164.16 83.3867C163.75 83.3867 163.419 83.7186 163.419 84.1279C163.419 84.5373 163.75 84.8691 164.16 84.8691Z" fill="#8643DC"/>
<path d="M160.268 88.5752C160.678 88.5752 161.01 88.2433 161.01 87.834C161.01 87.4246 160.678 87.0928 160.268 87.0928C159.859 87.0928 159.527 87.4246 159.527 87.834C159.527 88.2433 159.859 88.5752 160.268 88.5752Z" fill="#8643DC"/>
<path d="M156.562 92.2812C156.972 92.2812 157.303 91.9494 157.303 91.54C157.303 91.1307 156.972 90.7988 156.562 90.7988C156.153 90.7988 155.821 91.1307 155.821 91.54C155.821 91.9494 156.153 92.2812 156.562 92.2812Z" fill="#8643DC"/>
<path d="M152.671 95.9873C153.08 95.9873 153.412 95.6554 153.412 95.2461C153.412 94.8367 153.08 94.5049 152.671 94.5049C152.262 94.5049 151.93 94.8367 151.93 95.2461C151.93 95.6554 152.262 95.9873 152.671 95.9873Z" fill="#8643DC"/>
<path d="M148.965 99.6933C149.374 99.6933 149.706 99.3615 149.706 98.9521C149.706 98.5428 149.374 98.2109 148.965 98.2109C148.555 98.2109 148.224 98.5428 148.224 98.9521C148.224 99.3615 148.555 99.6933 148.965 99.6933Z" fill="#8643DC"/>
<path d="M145.074 103.585C145.483 103.585 145.815 103.253 145.815 102.843C145.815 102.434 145.483 102.102 145.074 102.102C144.664 102.102 144.332 102.434 144.332 102.843C144.332 103.253 144.664 103.585 145.074 103.585Z" fill="#8643DC"/>
<path d="M141.367 107.291C141.777 107.291 142.109 106.959 142.109 106.55C142.109 106.14 141.777 105.808 141.367 105.808C140.958 105.808 140.626 106.14 140.626 106.55C140.626 106.959 140.958 107.291 141.367 107.291Z" fill="#8643DC"/>
<path d="M198.997 59.6677C199.406 59.6677 199.738 59.3359 199.738 58.9265C199.738 58.5171 199.406 58.1853 198.997 58.1853C198.588 58.1853 198.256 58.5171 198.256 58.9265C198.256 59.3359 198.588 59.6677 198.997 59.6677Z" fill="#8643DC"/>
<path d="M195.106 63.3738C195.515 63.3738 195.847 63.0419 195.847 62.6326C195.847 62.2232 195.515 61.8914 195.106 61.8914C194.696 61.8914 194.364 62.2232 194.364 62.6326C194.364 63.0419 194.696 63.3738 195.106 63.3738Z" fill="#8643DC"/>
<path d="M191.399 67.0798C191.809 67.0798 192.141 66.748 192.141 66.3386C192.141 65.9293 191.809 65.5974 191.399 65.5974C190.99 65.5974 190.658 65.9293 190.658 66.3386C190.658 66.748 190.99 67.0798 191.399 67.0798Z" fill="#8643DC"/>
<path d="M187.508 70.7859C187.917 70.7859 188.249 70.454 188.249 70.0447C188.249 69.6353 187.917 69.3035 187.508 69.3035C187.099 69.3035 186.767 69.6353 186.767 70.0447C186.767 70.454 187.099 70.7859 187.508 70.7859Z" fill="#8643DC"/>
<path d="M183.802 74.4919C184.211 74.4919 184.543 74.1601 184.543 73.7507C184.543 73.3414 184.211 73.0095 183.802 73.0095C183.393 73.0095 183.061 73.3414 183.061 73.7507C183.061 74.1601 183.393 74.4919 183.802 74.4919Z" fill="#8643DC"/>
<path d="M179.911 78.198C180.32 78.198 180.652 77.8661 180.652 77.4568C180.652 77.0474 180.32 76.7156 179.911 76.7156C179.501 76.7156 179.169 77.0474 179.169 77.4568C179.169 77.8661 179.501 78.198 179.911 78.198Z" fill="#8643DC"/>
<path d="M176.019 81.904C176.429 81.904 176.761 81.5722 176.761 81.1628C176.761 80.7535 176.429 80.4216 176.019 80.4216C175.61 80.4216 175.278 80.7535 175.278 81.1628C175.278 81.5722 175.61 81.904 176.019 81.904Z" fill="#8643DC"/>
<path d="M172.313 85.6101C172.723 85.6101 173.054 85.2782 173.054 84.8689C173.054 84.4595 172.723 84.1277 172.313 84.1277C171.904 84.1277 171.572 84.4595 171.572 84.8689C171.572 85.2782 171.904 85.6101 172.313 85.6101Z" fill="#8643DC"/>
<path d="M168.422 89.3164C168.831 89.3164 169.163 88.9845 169.163 88.5752C169.163 88.1658 168.831 87.834 168.422 87.834C168.013 87.834 167.681 88.1658 167.681 88.5752C167.681 88.9845 168.013 89.3164 168.422 89.3164Z" fill="#8643DC"/>
<path d="M164.716 93.0224C165.125 93.0224 165.457 92.6906 165.457 92.2812C165.457 91.8719 165.125 91.54 164.716 91.54C164.306 91.54 163.975 91.8719 163.975 92.2812C163.975 92.6906 164.306 93.0224 164.716 93.0224Z" fill="#8643DC"/>
<path d="M160.824 96.7285C161.234 96.7285 161.566 96.3967 161.566 95.9873C161.566 95.5779 161.234 95.2461 160.824 95.2461C160.415 95.2461 160.083 95.5779 160.083 95.9873C160.083 96.3967 160.415 96.7285 160.824 96.7285Z" fill="#8643DC"/>
<path d="M157.118 100.62C157.528 100.62 157.859 100.288 157.859 99.8787C157.859 99.4693 157.528 99.1375 157.118 99.1375C156.709 99.1375 156.377 99.4693 156.377 99.8787C156.377 100.288 156.709 100.62 157.118 100.62Z" fill="#8643DC"/>
<path d="M153.227 104.326C153.636 104.326 153.968 103.994 153.968 103.585C153.968 103.175 153.636 102.844 153.227 102.844C152.817 102.844 152.486 103.175 152.486 103.585C152.486 103.994 152.817 104.326 153.227 104.326Z" fill="#8643DC"/>
<path d="M149.521 108.032C149.93 108.032 150.262 107.7 150.262 107.291C150.262 106.881 149.93 106.55 149.521 106.55C149.111 106.55 148.78 106.881 148.78 107.291C148.78 107.7 149.111 108.032 149.521 108.032Z" fill="#8643DC"/>
<path d="M145.629 111.738C146.039 111.738 146.371 111.406 146.371 110.997C146.371 110.587 146.039 110.256 145.629 110.256C145.22 110.256 144.888 110.587 144.888 110.997C144.888 111.406 145.22 111.738 145.629 111.738Z" fill="#8643DC"/>
<path d="M203.259 64.115C203.668 64.115 204 63.7831 204 63.3738C204 62.9644 203.668 62.6326 203.259 62.6326C202.85 62.6326 202.518 62.9644 202.518 63.3738C202.518 63.7831 202.85 64.115 203.259 64.115Z" fill="#8643DC"/>
<path d="M199.553 67.8211C199.962 67.8211 200.294 67.4892 200.294 67.0798C200.294 66.6705 199.962 66.3386 199.553 66.3386C199.143 66.3386 198.812 66.6705 198.812 67.0798C198.812 67.4892 199.143 67.8211 199.553 67.8211Z" fill="#8643DC"/>
<path d="M195.661 71.5271C196.071 71.5271 196.403 71.1952 196.403 70.7859C196.403 70.3765 196.071 70.0447 195.661 70.0447C195.252 70.0447 194.92 70.3765 194.92 70.7859C194.92 71.1952 195.252 71.5271 195.661 71.5271Z" fill="#8643DC"/>
<path d="M191.955 75.2332C192.365 75.2332 192.697 74.9013 192.697 74.4919C192.697 74.0826 192.365 73.7507 191.955 73.7507C191.546 73.7507 191.214 74.0826 191.214 74.4919C191.214 74.9013 191.546 75.2332 191.955 75.2332Z" fill="#8643DC"/>
<path d="M188.064 78.9392C188.473 78.9392 188.805 78.6074 188.805 78.198C188.805 77.7886 188.473 77.4568 188.064 77.4568C187.655 77.4568 187.323 77.7886 187.323 78.198C187.323 78.6074 187.655 78.9392 188.064 78.9392Z" fill="#8643DC"/>
<path d="M184.358 82.6453C184.767 82.6453 185.099 82.3134 185.099 81.904C185.099 81.4947 184.767 81.1628 184.358 81.1628C183.949 81.1628 183.617 81.4947 183.617 81.904C183.617 82.3134 183.949 82.6453 184.358 82.6453Z" fill="#8643DC"/>
<path d="M180.467 86.3514C180.876 86.3514 181.208 86.0195 181.208 85.6101C181.208 85.2007 180.876 84.8689 180.467 84.8689C180.057 84.8689 179.725 85.2007 179.725 85.6101C179.725 86.0195 180.057 86.3514 180.467 86.3514Z" fill="#8643DC"/>
<path d="M176.76 90.0574C177.17 90.0574 177.502 89.7255 177.502 89.3162C177.502 88.9068 177.17 88.575 176.76 88.575C176.351 88.575 176.019 88.9068 176.019 89.3162C176.019 89.7255 176.351 90.0574 176.76 90.0574Z" fill="#8643DC"/>
<path d="M172.869 93.7637C173.278 93.7637 173.61 93.4318 173.61 93.0225C173.61 92.6131 173.278 92.2812 172.869 92.2812C172.46 92.2812 172.128 92.6131 172.128 93.0225C172.128 93.4318 172.46 93.7637 172.869 93.7637Z" fill="#8643DC"/>
<path d="M169.163 97.655C169.572 97.655 169.904 97.3232 169.904 96.9138C169.904 96.5044 169.572 96.1726 169.163 96.1726C168.754 96.1726 168.422 96.5044 168.422 96.9138C168.422 97.3232 168.754 97.655 169.163 97.655Z" fill="#8643DC"/>
<path d="M165.272 101.361C165.681 101.361 166.013 101.029 166.013 100.62C166.013 100.211 165.681 99.8787 165.272 99.8787C164.862 99.8787 164.53 100.211 164.53 100.62C164.53 101.029 164.862 101.361 165.272 101.361Z" fill="#8643DC"/>
<path d="M161.38 105.067C161.79 105.067 162.122 104.735 162.122 104.326C162.122 103.917 161.79 103.585 161.38 103.585C160.971 103.585 160.639 103.917 160.639 104.326C160.639 104.735 160.971 105.067 161.38 105.067Z" fill="#8643DC"/>
<path d="M157.674 108.773C158.084 108.773 158.416 108.441 158.416 108.032C158.416 107.623 158.084 107.291 157.674 107.291C157.265 107.291 156.933 107.623 156.933 108.032C156.933 108.441 157.265 108.773 157.674 108.773Z" fill="#8643DC"/>
<path d="M153.783 112.479C154.192 112.479 154.524 112.147 154.524 111.738C154.524 111.329 154.192 110.997 153.783 110.997C153.373 110.997 153.042 111.329 153.042 111.738C153.042 112.147 153.373 112.479 153.783 112.479Z" fill="#8643DC"/>
<path d="M150.077 116.185C150.486 116.185 150.818 115.853 150.818 115.444C150.818 115.035 150.486 114.703 150.077 114.703C149.667 114.703 149.335 115.035 149.335 115.444C149.335 115.853 149.667 116.185 150.077 116.185Z" fill="#8643DC"/>
<path d="M173 125.2L172.228 124.194L161 132.813L161.772 133.819L173 125.2Z" fill="#8643DC"/>
<path d="M171.763 134.228L163.144 123L162.138 123.772L170.758 135L171.763 134.228Z" fill="#8643DC"/>
<path d="M3.41577 78.4158C5.30224 78.7384 7.0931 77.4707 7.41577 75.5843C7.73844 73.6978 6.47074 71.9069 4.58427 71.5843C2.6978 71.2616 0.906941 72.5293 0.584268 74.4157C0.261595 76.3022 1.5293 78.0931 3.41577 78.4158Z" fill="#43DC77"/>
</svg>
